<svg xmlns="http://www.w3.org/2000/svg" width="16" height="16" fill="none"><circle cx="8" cy="8" r="7" fill="#fff"/><path fill="#ff711b" fill-rule="evenodd" d="M9 .1h.7q.8.2 1.5.6 1 .2 2 .8.6.6 1 1.3.9 1.5 1.5 3.1.4 1.8.2 3.6c0 1.4-1 3-2 4q-1.5 1.5-3.5 2l-1.3.3q-1.5.3-3 0l-2-.7-2.3.7h-.5l-.7-.2a1 1 0 0 1-.3-1c.2-.6.9-1.3 1.2-2Q1 12 .8 11.3.4 10.2.2 9a12 12 0 0 1 .1-3.4q0-.8.5-1.4a7 7 0 0 1 2-2.1q.7-.8 1.7-1.4C5.9-.1 7.5.2 9 0M7.3 13.6v.3H8zm-2.5-10-.7.6q-.4.2-.6.5l.2 2q0 .6.4 1.2 0 .4.2.7l1.4 1.5q1.4 1.2 3.2 2 .5.2 1 .2h1.2l.8-.1q.4-.6.7-1.2l.2-.8-1.1-.5q-.7-.4-1.4-.5l-.2.5q-.3.6-1 .6l-1-.3-.8-.4C6.7 9.2 5.6 7.8 5.8 7l.5-.7.2-.5-.7-1.9-.3-.2zm-1 7.4-.2.5.5-.2c-.2-.1-.3-.5-.4-.3M2.1 8.6v.5zm5.9-1 .3.3.2.2.2-.3c-.2-.1-.8-.4-.7-.2M11.5 6v.7l.2-.1.2-.3zm-2.8-.8h-.3l.1.4h.3zm4-1q0 .3.2.3zM10.5 3l.3.5.3-.4zM7 2.1l.4.6.3-.6c-.2 0-.9-.2-.7 0" clip-rule="evenodd"/></svg>